<?xml version="1.0"?>
<svg version="1.1" xmlns="http://www.w3.org/2000/svg" width="263" height="50" style=""><path fill="#63b2eb" d="M15.69580078125,22.821044921875q-0.0244140625-0.323486328125,0.054931640625-0.6103515625t0.299072265625-0.47607421875t0.74462890625-0.189208984375q0.1220703125,0,0.299072265625,0.0244140625t0.35400390625,0.079345703125t0.286865234375,0.152587890625t0.10986328125,0.2685546875q0,0.45166015625,0.030517578125,1.190185546875t0.079345703125,1.5380859375t0.091552734375,1.5625t0.079345703125,1.239013671875q0.9521484375-0.048828125,1.91650390625-0.048828125t1.904296875-0.048828125l1.6845703125-0.048828125l0-1.20849609375q0-2.0263671875-0.079345703125-4.058837890625t-0.274658203125-4.058837890625q0-0.146484375,0.1220703125-0.238037109375t0.286865234375-0.140380859375t0.341796875-0.06103515625t0.274658203125-0.01220703125q0.28076171875,0,0.604248046875,0.08544921875t0.372314453125,0.3662109375l0.0732421875,0.52490234375q0.30517578125,2.197265625,0.4150390625,4.345703125t0.15869140625,4.296875q0.146484375,0.0244140625,0.311279296875,0.079345703125t0.335693359375,0.103759765625q0.1220703125,0.048828125,0.347900390625,0.146484375t0.225830078125,0.30517578125q0,0.1953125-0.1708984375,0.30517578125t-0.384521484375,0.164794921875t-0.4150390625,0.067138671875t-0.250244140625,0.01220703125q0.0244140625,0.9033203125,0.0244140625,1.800537109375l0,1.800537109375l0,3.94287109375l0,2.197265625q0,0.146484375-0.140380859375,0.262451171875t-0.335693359375,0.189208984375t-0.408935546875,0.09765625t-0.384521484375,0.0244140625t-0.40283203125-0.0244140625t-0.4150390625-0.09765625t-0.323486328125-0.18310546875t-0.140380859375-0.2685546875l0-0.52490234375q0.048828125-2.3193359375,0.10986328125-4.595947265625t0.1220703125-4.571533203125q-1.33056640625,0.048828125-2.703857421875,0.06103515625t-2.728271484375,0.06103515625q0.146484375,1.72119140625,0.335693359375,3.436279296875t0.396728515625,3.436279296875q0,0.146484375-0.140380859375,0.262451171875t-0.32958984375,0.189208984375t-0.40283203125,0.09765625t-0.384521484375,0.0244140625q-0.35400390625,0-0.775146484375-0.1220703125t-0.469970703125-0.45166015625q-0.146484375-1.2939453125-0.274658203125-2.8564453125t-0.225830078125-3.192138671875t-0.152587890625-3.192138671875t-0.054931640625-2.83203125q0-0.30517578125-0.0244140625-0.628662109375z M29.644409179688,32.94677734375q0-0.830078125,0.225830078125-1.59912109375t0.677490234375-1.373291015625t1.129150390625-0.96435546875t1.568603515625-0.360107421875q0.54931640625,0,1.214599609375,0.164794921875t1.251220703125,0.48828125t0.9765625,0.823974609375t0.390625,1.1474609375q0,0.30517578125-0.103759765625,0.4638671875t-0.421142578125,0.15869140625l-0.13427734375-0.0244140625q0.35400390625,0.9521484375,0.6103515625,1.953125t0.50048828125,2.001953125q0.09765625,0.1953125,0.146484375,0.347900390625t0.048828125,0.299072265625q0,0.1953125-0.10986328125,0.323486328125t-0.286865234375,0.189208984375t-0.3662109375,0.08544921875t-0.335693359375,0.0244140625q-0.52490234375,0-0.787353515625-0.18310546875t-0.37841796875-0.50048828125t-0.140380859375-0.714111328125t-0.09765625-0.799560546875q-0.146484375,0.47607421875-0.384521484375,0.927734375t-0.5615234375,0.811767578125t-0.762939453125,0.57373046875t-0.98876953125,0.213623046875q-0.8056640625,0-1.35498046875-0.4638671875t-0.885009765625-1.141357421875t-0.48828125-1.446533203125t-0.152587890625-1.42822265625z M31.377807617188,32.77587890625q0,0.45166015625,0.06103515625,0.9521484375t0.201416015625,0.98876953125t0.360107421875,0.921630859375t0.54931640625,0.762939453125q0.59814453125-0.64697265625,0.885009765625-1.57470703125t0.5126953125-1.788330078125t0.5126953125-1.47705078125t0.885009765625-0.616455078125q0.37841796875,0,0.634765625,0.13427734375q-0.1220703125-0.30517578125-0.40283203125-0.592041015625t-0.628662109375-0.52490234375t-0.72021484375-0.390625t-0.701904296875-0.152587890625q-0.09765625,0-0.225830078125,0.030517578125t-0.201416015625,0.006103515625q-0.50048828125,0.146484375-0.823974609375,0.506591796875t-0.52490234375,0.848388671875t-0.286865234375,1.0009765625t-0.08544921875,0.96435546875z M40.223876953125,32.94677734375q0-0.830078125,0.225830078125-1.59912109375t0.677490234375-1.373291015625t1.129150390625-0.96435546875t1.568603515625-0.360107421875q0.54931640625,0,1.214599609375,0.164794921875t1.251220703125,0.48828125t0.9765625,0.823974609375t0.390625,1.1474609375q0,0.30517578125-0.103759765625,0.4638671875t-0.421142578125,0.15869140625l-0.13427734375-0.0244140625q0.35400390625,0.9521484375,0.6103515625,1.953125t0.50048828125,2.001953125q0.09765625,0.1953125,0.146484375,0.347900390625t0.048828125,0.299072265625q0,0.1953125-0.10986328125,0.323486328125t-0.286865234375,0.189208984375t-0.3662109375,0.08544921875t-0.335693359375,0.0244140625q-0.52490234375,0-0.787353515625-0.18310546875t-0.37841796875-0.50048828125t-0.140380859375-0.714111328125t-0.09765625-0.799560546875q-0.146484375,0.47607421875-0.384521484375,0.927734375t-0.5615234375,0.811767578125t-0.762939453125,0.57373046875t-0.98876953125,0.213623046875q-0.8056640625,0-1.35498046875-0.4638671875t-0.885009765625-1.141357421875t-0.48828125-1.446533203125t-0.152587890625-1.42822265625z M41.957275390625,32.77587890625q0,0.45166015625,0.06103515625,0.9521484375t0.201416015625,0.98876953125t0.360107421875,0.921630859375t0.54931640625,0.762939453125q0.59814453125-0.64697265625,0.885009765625-1.57470703125t0.5126953125-1.788330078125t0.5126953125-1.47705078125t0.885009765625-0.616455078125q0.37841796875,0,0.634765625,0.13427734375q-0.1220703125-0.30517578125-0.40283203125-0.592041015625t-0.628662109375-0.52490234375t-0.72021484375-0.390625t-0.701904296875-0.152587890625q-0.09765625,0-0.225830078125,0.030517578125t-0.201416015625,0.006103515625q-0.50048828125,0.146484375-0.823974609375,0.506591796875t-0.52490234375,0.848388671875t-0.286865234375,1.0009765625t-0.08544921875,0.96435546875z M50.803344726562,32.80029296875q0-0.9521484375,0.201416015625-1.727294921875t0.640869140625-1.312255859375t1.153564453125-0.836181640625t1.739501953125-0.299072265625q0.57373046875,0,1.171875,0.152587890625t1.025390625,0.567626953125q0-0.244140625,0.048828125-1.007080078125t0.1220703125-1.776123046875t0.152587890625-2.1240234375t0.140380859375-2.06298828125t0.10986328125-1.59912109375t0.0732421875-0.732421875q0.1220703125-0.35400390625,0.45166015625-0.421142578125t0.62255859375-0.067138671875q0.76904296875,0,0.946044921875,0.244140625t0.177001953125,0.9765625q0,2.67333984375-0.238037109375,5.322265625t-0.238037109375,5.322265625q0,1.72119140625,0.067138671875,3.460693359375t0.482177734375,3.424072265625l0.13427734375,0.1220703125l0.0732421875,0.2197265625l-0.18310546875,0.28076171875q-0.4638671875,0.29296875-1.07421875,0.29296875l-0.048828125,0q-0.62255859375,0-1.1474609375-0.29296875q-0.1953125-0.1220703125-0.323486328125-0.726318359375t-0.201416015625-1.33056640625t-0.10986328125-1.397705078125t-0.06103515625-0.9521484375q-0.42724609375,0.9765625-1.165771484375,1.678466796875t-1.861572265625,0.701904296875q-0.87890625,0-1.4404296875-0.37841796875t-0.872802734375-0.96435546875t-0.439453125-1.312255859375t-0.128173828125-1.446533203125z M52.280395507812,32.87353515625q0,0.28076171875,0.067138671875,0.830078125t0.213623046875,1.0986328125t0.408935546875,0.9765625t0.689697265625,0.42724609375q0.57373046875-0.28076171875,1.03759765625-0.933837890625t0.799560546875-1.4404296875t0.52490234375-1.57470703125t0.189208984375-1.361083984375q0-0.72021484375-0.52490234375-1.1962890625t-1.25732421875-0.47607421875q-0.2197265625,0-0.445556640625,0.08544921875t-0.421142578125,0.1953125q-0.45166015625,0.42724609375-0.701904296875,0.775146484375t-0.37841796875,0.72021484375t-0.164794921875,0.823974609375t-0.03662109375,1.0498046875z M62.359375,32.65380859375q0-1.123046875,0.262451171875-2.203369140625t0.445556640625-2.154541015625q0.048828125-0.28076171875,0.384521484375-0.347900390625t0.567626953125-0.067138671875q0.40283203125,0,0.64697265625,0.1220703125q0.09765625,0.048828125,0.18310546875,0.10986328125t0.08544921875,0.15869140625q0,1.0498046875-0.250244140625,2.05078125t-0.250244140625,2.1240234375q0,0.37841796875,0.054931640625,0.714111328125t0.103759765625,0.665283203125l0.0732421875,0.35400390625q0,0.09765625,0.01220703125,0.1708984375t0.03662109375,0.1708984375q0,0.2197265625-0.311279296875,0.299072265625t-0.543212890625,0.079345703125q-0.35400390625,0-0.653076171875-0.140380859375t-0.469970703125-0.482177734375l-0.1708984375-0.35400390625q-0.146484375-0.28076171875-0.146484375-0.628662109375t-0.06103515625-0.640869140625z M63.140625,25.30517578125l0-0.23193359375q0-0.57373046875,0.286865234375-1.025390625t0.860595703125-0.45166015625q0.0732421875,0,0.140380859375,0.01220703125t0.140380859375,0.01220703125q0.146484375,0.0244140625,0.384521484375,0.115966796875t0.238037109375,0.286865234375l0,0.0244140625q-0.048828125,0.09765625-0.06103515625,0.201416015625t-0.06103515625,0.177001953125l0.0244140625-0.0244140625q-0.146484375,0.37841796875-0.238037109375,0.6103515625t-0.201416015625,0.372314453125t-0.274658203125,0.201416015625t-0.469970703125,0.06103515625q-0.048828125,0-0.1708984375-0.01220703125t-0.262451171875-0.048828125t-0.238037109375-0.09765625t-0.09765625-0.18310546875z M72.470947265625,35.5224609375q-0.01220703125-0.3662109375-0.01220703125-0.732421875q0-1.1474609375,0.1220703125-2.30712890625q0.146484375-1.5380859375,0.1953125-3.02734375q0.048828125-1.74560546875,0.146484375-3.62548828125q0.06103515625-1.025390625,0.06103515625-2.0263671875q0-0.81787109375-0.03662109375-1.62353515625q0.1220703125-0.28076171875,0.323486328125-0.37841796875t0.506591796875-0.09765625q0.146484375,0,0.311279296875,0.0244140625t0.286865234375,0.1220703125q0.1708984375,0.0244140625,0.421142578125,0.048828125t0.384521484375,0.146484375q0.048828125,0.0732421875,0.250244140625,0.50048828125t0.47607421875,1.03759765625t0.57373046875,1.324462890625t0.57373046875,1.35498046875t0.47607421875,1.129150390625t0.250244140625,0.6103515625q1.1474609375-2.0751953125,2.24609375-4.266357421875t2.40478515625-4.132080078125q0.1220703125-0.1708984375,0.421142578125-0.250244140625t0.494384765625-0.079345703125q0.52490234375,0,0.762939453125,0.250244140625t0.311279296875,0.640869140625q0.048828125,0.244140625,0.06103515625,0.52490234375q0.01220703125,0.146484375-0.01220703125,0.30517578125q-0.048828125,0.45166015625-0.048828125,0.8544921875q0,2.84423828125-0.1953125,5.645751953125t-0.35400390625,5.657958984375q-0.0244140625,0.5859375-0.0244140625,1.220703125t0.0244140625,1.318359375q0.01220703125,0.244140625,0.01220703125,0.47607421875q0,1.07421875-0.18310546875,2.001953125q-0.1708984375,0.28076171875-0.5615234375,0.35400390625t-0.6591796875,0.0732421875q-0.57373046875,0-1.0986328125-0.2685546875l-0.13427734375-0.15869140625l-0.048828125-0.1953125t-0.0244140625-0.1953125q0-1.77001953125,0.128173828125-3.564453125t0.286865234375-3.582763671875t0.335693359375-3.570556640625t0.299072265625-3.564453125q-0.72021484375,1.1962890625-1.397705078125,2.435302734375t-1.275634765625,2.520751953125q-0.2197265625,0.50048828125-0.421142578125,1.07421875t-0.482177734375,1.025390625q-0.146484375,0.2197265625-0.494384765625,0.2685546875t-0.604248046875,0.048828125q-0.244140625,0-0.506591796875-0.08544921875t-0.360107421875-0.3662109375q-0.45166015625-1.37939453125-0.96435546875-2.69775390625t-1.03759765625-2.67333984375q0,0.9033203125,0.03662109375,2.337646484375t0.03662109375,2.972412109375t-0.048828125,2.94189453125t-0.23193359375,2.2216796875q-0.048828125,0.30517578125-0.396728515625,0.37841796875t-0.604248046875,0.0732421875q-0.1953125,0-0.372314453125-0.0244140625t-0.347900390625-0.09765625z M86.468383789062,31.87255859375q0-0.244140625,0.054931640625-0.64697265625t0.128173828125-0.799560546875t0.1708984375-0.738525390625t0.23193359375-0.439453125q0.09765625-0.09765625,0.335693359375-0.1953125t0.50048828125-0.140380859375t0.48828125,0.03662109375t0.274658203125,0.323486328125q-0.1708984375,0.2197265625-0.311279296875,0.750732421875t-0.213623046875,1.177978515625q-0.06103515625,0.54931640625-0.06103515625,1.13525390625l0,0.20751953125q0.01220703125,0.68359375,0.1220703125,1.25732421875t0.335693359375,0.946044921875t0.628662109375,0.372314453125q0.8544921875,0,1.5625-0.787353515625t1.25732421875-1.922607421875t0.96435546875-2.410888671875t0.7080078125-2.227783203125q0.0732421875-0.28076171875,0.347900390625-0.37841796875t0.592041015625-0.067138671875t0.567626953125,0.152587890625t0.299072265625,0.29296875q-0.244140625,2.05078125-0.384521484375,4.1015625t-0.140380859375,4.1259765625q0,0.40283203125,0.03662109375,0.738525390625t-0.03662109375,0.57373046875t-0.323486328125,0.37841796875t-0.799560546875,0.140380859375q-0.1220703125,0-0.311279296875-0.0244140625t-0.390625-0.079345703125t-0.341796875-0.164794921875t-0.140380859375-0.25634765625q0-0.9033203125,0.067138671875-1.85546875t0.189208984375-1.84326171875q-0.32958984375,0.47607421875-0.726318359375,0.946044921875t-0.872802734375,0.848388671875t-1.025390625,0.604248046875t-1.18408203125,0.225830078125q-0.9033203125,0-1.422119140625-0.42724609375t-0.78125-1.068115234375t-0.32958984375-1.397705078125t-0.067138671875-1.46484375z M97.951171875,34.27734375l0-1.1474609375q0-0.62255859375,0.030517578125-1.763916015625t0.079345703125-2.50244140625t0.13427734375-2.838134765625t0.1953125-2.789306640625t0.262451171875-2.349853515625t0.347900390625-1.5380859375q0.1220703125-0.28076171875,0.40283203125-0.35400390625t0.54931640625-0.0732421875q0.42724609375,0,0.750732421875,0.189208984375t0.323486328125,0.689697265625l-0.2197265625,0.244140625q-0.42724609375,2.81982421875-0.54931640625,5.6640625t-0.1708984375,5.6884765625q0.30517578125-0.47607421875,0.689697265625-0.933837890625t0.8544921875-0.811767578125t1.01318359375-0.567626953125t1.190185546875-0.213623046875q0.830078125,0,1.373291015625,0.50048828125t0.897216796875,1.300048828125t0.52490234375,1.788330078125t0.262451171875,1.9775390625t0.128173828125,1.873779296875t0.10986328125,1.470947265625q-0.23193359375,0.3173828125-0.68359375,0.3173828125l-0.03662109375,0q-0.1953125,0-0.42724609375-0.048828125t-0.30517578125-0.244140625l0.0244140625,0.0244140625q-0.1708984375-0.37841796875-0.23193359375-1.092529296875t-0.09765625-1.57470703125t-0.128173828125-1.763916015625t-0.274658203125-1.6357421875t-0.537109375-1.20849609375t-0.9521484375-0.50048828125l-0.0732421875,0q-0.72021484375,0-1.20849609375,0.439453125q-0.5126953125,0.4638671875-0.830078125,1.220703125t-0.48828125,1.6845703125t-0.262451171875,1.788330078125t-0.140380859375,1.5625t-0.1220703125,1.031494140625q-0.0732421875,0.28076171875-0.433349609375,0.372314453125t-0.616455078125,0.091552734375q-0.59814453125,0-0.9765625-0.341796875q-0.28076171875-0.67138671875-0.32958984375-1.67236328125t-0.048828125-1.953125z M109.62927246094,32.94677734375q0-0.830078125,0.225830078125-1.59912109375t0.677490234375-1.373291015625t1.129150390625-0.96435546875t1.568603515625-0.360107421875q0.54931640625,0,1.214599609375,0.164794921875t1.251220703125,0.48828125t0.9765625,0.823974609375t0.390625,1.1474609375q0,0.30517578125-0.103759765625,0.4638671875t-0.421142578125,0.15869140625l-0.13427734375-0.0244140625q0.35400390625,0.9521484375,0.6103515625,1.953125t0.50048828125,2.001953125q0.09765625,0.1953125,0.146484375,0.347900390625t0.048828125,0.299072265625q0,0.1953125-0.10986328125,0.323486328125t-0.286865234375,0.189208984375t-0.3662109375,0.08544921875t-0.335693359375,0.0244140625q-0.52490234375,0-0.787353515625-0.18310546875t-0.37841796875-0.50048828125t-0.140380859375-0.714111328125t-0.09765625-0.799560546875q-0.146484375,0.47607421875-0.384521484375,0.927734375t-0.5615234375,0.811767578125t-0.762939453125,0.57373046875t-0.98876953125,0.213623046875q-0.8056640625,0-1.35498046875-0.4638671875t-0.885009765625-1.141357421875t-0.48828125-1.446533203125t-0.152587890625-1.42822265625z M111.36267089844,32.77587890625q0,0.45166015625,0.06103515625,0.9521484375t0.201416015625,0.98876953125t0.360107421875,0.921630859375t0.54931640625,0.762939453125q0.59814453125-0.64697265625,0.885009765625-1.57470703125t0.5126953125-1.788330078125t0.5126953125-1.47705078125t0.885009765625-0.616455078125q0.37841796875,0,0.634765625,0.13427734375q-0.1220703125-0.30517578125-0.40283203125-0.592041015625t-0.628662109375-0.52490234375t-0.72021484375-0.390625t-0.701904296875-0.152587890625q-0.09765625,0-0.225830078125,0.030517578125t-0.201416015625,0.006103515625q-0.50048828125,0.146484375-0.823974609375,0.506591796875t-0.52490234375,0.848388671875t-0.286865234375,1.0009765625t-0.08544921875,0.96435546875z M120.2392578125,29.888916015625q-0.030517578125-0.408935546875,0.048828125-0.750732421875t0.3173828125-0.555419921875t0.762939453125-0.213623046875q0.1220703125,0,0.299072265625,0.030517578125t0.347900390625,0.079345703125t0.286865234375,0.146484375t0.115966796875,0.2685546875l0,1.37939453125q0.47607421875-0.54931640625,1.03759765625-0.787353515625t1.28173828125-0.238037109375q0.54931640625,0,1.08642578125,0.250244140625t1.01318359375,0.665283203125t0.823974609375,0.91552734375t0.506591796875,1.0009765625q0.09765625-0.45166015625,0.2197265625-1.104736328125t0.360107421875-1.251220703125t0.628662109375-1.025390625t1.03759765625-0.42724609375q0.69580078125,0,1.171875,0.50048828125t0.775146484375,1.300048828125t0.45166015625,1.788330078125t0.225830078125,1.953125t0.0732421875,1.800537109375l0,1.312255859375q0,0.146484375-0.10986328125,0.238037109375t-0.274658203125,0.140380859375t-0.341796875,0.06103515625t-0.274658203125,0.01220703125q-0.37841796875,0-0.689697265625-0.115966796875t-0.311279296875-0.592041015625l0-1.0986328125t-0.0244140625-1.422119140625t-0.08544921875-1.52587890625t-0.15869140625-1.385498046875t-0.250244140625-1.0009765625t-0.372314453125-0.390625q-0.30517578125,0-0.439453125,0.341796875t-0.225830078125,0.86669921875t-0.140380859375,1.11083984375t-0.13427734375,1.11083984375t-0.274658203125,0.860595703125t-0.518798828125,0.335693359375q-0.35400390625,0-0.62255859375-0.335693359375t-0.531005859375-0.836181640625t-0.52490234375-1.07421875t-0.579833984375-1.07421875q-0.3173828125-0.5126953125-0.68359375-0.830078125q-0.32958984375-0.30517578125-0.74462890625-0.29296875l-0.06103515625,0q-0.54931640625,0.0244140625-0.860595703125,0.396728515625t-0.47607421875,0.909423828125t-0.201416015625,1.153564453125t-0.03662109375,1.080322265625q0,0.439453125,0.0732421875,1.025390625q0.048828125,0.390625,0.048828125,0.74462890625q0,0.18310546875-0.01220703125,0.35400390625q-0.03662109375,0.5126953125-0.274658203125,0.860595703125t-0.885009765625,0.347900390625q-0.244140625,0-0.6103515625-0.048828125t-0.48828125-0.32958984375q-0.28076171875-0.50048828125-0.42724609375-1.263427734375t-0.2197265625-1.57470703125t-0.08544921875-1.611328125t-0.01220703125-1.373291015625q0-0.40283203125-0.030517578125-0.811767578125z M135.66491699219,29.888916015625q-0.030517578125-0.408935546875,0.048828125-0.750732421875t0.3173828125-0.555419921875t0.762939453125-0.213623046875q0.1220703125,0,0.299072265625,0.030517578125t0.347900390625,0.079345703125t0.286865234375,0.146484375t0.115966796875,0.2685546875l0,1.37939453125q0.47607421875-0.54931640625,1.03759765625-0.787353515625t1.28173828125-0.238037109375q0.54931640625,0,1.08642578125,0.250244140625t1.01318359375,0.665283203125t0.823974609375,0.91552734375t0.506591796875,1.0009765625q0.09765625-0.45166015625,0.2197265625-1.104736328125t0.360107421875-1.251220703125t0.628662109375-1.025390625t1.03759765625-0.42724609375q0.69580078125,0,1.171875,0.50048828125t0.775146484375,1.300048828125t0.45166015625,1.788330078125t0.225830078125,1.953125t0.0732421875,1.800537109375l0,1.312255859375q0,0.146484375-0.10986328125,0.238037109375t-0.274658203125,0.140380859375t-0.341796875,0.06103515625t-0.274658203125,0.01220703125q-0.37841796875,0-0.689697265625-0.115966796875t-0.311279296875-0.592041015625l0-1.0986328125t-0.0244140625-1.422119140625t-0.08544921875-1.52587890625t-0.15869140625-1.385498046875t-0.250244140625-1.0009765625t-0.372314453125-0.390625q-0.30517578125,0-0.439453125,0.341796875t-0.225830078125,0.86669921875t-0.140380859375,1.11083984375t-0.13427734375,1.11083984375t-0.274658203125,0.860595703125t-0.518798828125,0.335693359375q-0.35400390625,0-0.62255859375-0.335693359375t-0.531005859375-0.836181640625t-0.52490234375-1.07421875t-0.579833984375-1.07421875q-0.3173828125-0.5126953125-0.68359375-0.830078125q-0.32958984375-0.30517578125-0.74462890625-0.29296875l-0.06103515625,0q-0.54931640625,0.0244140625-0.860595703125,0.396728515625t-0.47607421875,0.909423828125t-0.201416015625,1.153564453125t-0.03662109375,1.080322265625q0,0.439453125,0.0732421875,1.025390625q0.048828125,0.390625,0.048828125,0.74462890625q0,0.18310546875-0.01220703125,0.35400390625q-0.03662109375,0.5126953125-0.274658203125,0.860595703125t-0.885009765625,0.347900390625q-0.244140625,0-0.6103515625-0.048828125t-0.48828125-0.32958984375q-0.28076171875-0.50048828125-0.42724609375-1.263427734375t-0.2197265625-1.57470703125t-0.08544921875-1.611328125t-0.01220703125-1.373291015625q0-0.40283203125-0.030517578125-0.811767578125z M151.06005859375,33.447265625q0-0.8544921875,0.189208984375-2.01416015625t0.640869140625-2.197265625t1.190185546875-1.763916015625t1.861572265625-0.726318359375q1.0498046875,0,1.57470703125,0.604248046875t0.52490234375,1.629638671875q0,0.67138671875-0.250244140625,1.470947265625t-0.714111328125,1.513671875t-1.0986328125,1.190185546875t-1.416015625,0.47607421875l-0.3173828125-0.0244140625q0,0.32958984375,0.09765625,0.885009765625t0.286865234375,1.104736328125t0.48828125,0.96435546875t0.726318359375,0.4150390625q0.62255859375,0,1.1962890625-0.50048828125t1.08642578125-1.11083984375t0.9521484375-1.11083984375t0.8056640625-0.50048828125q0.1953125,0,0.40283203125,0.06103515625t0.23193359375,0.341796875q0,0.1708984375-0.091552734375,0.28076171875t-0.164794921875,0.244140625q-0.37841796875,0.64697265625-0.823974609375,1.23291015625t-1.007080078125,1.06201171875t-1.226806640625,0.750732421875t-1.470947265625,0.274658203125q-1.0498046875,0-1.74560546875-0.372314453125t-1.123046875-1.0009765625t-0.616455078125-1.45263671875t-0.189208984375-1.727294921875z M153.2451171875,32.51953125l0.341796875,0.30517578125q0.244140625,0.2197265625,0.48828125,0.09765625t0.439453125-0.445556640625t0.360107421875-0.799560546875t0.29296875-0.9765625t0.189208984375-0.9765625t0.06103515625-0.79345703125l0-0.4150390625t-0.03662109375-0.439453125t-0.128173828125-0.347900390625t-0.286865234375-0.177001953125q-0.06103515625-0.01220703125-0.10986328125-0.01220703125q-0.4150390625,0-0.7080078125,0.52490234375q-0.3173828125,0.5859375-0.5126953125,1.422119140625t-0.28076171875,1.715087890625t-0.10986328125,1.318359375z M161.26110839844,32.80029296875q0-0.9521484375,0.201416015625-1.727294921875t0.640869140625-1.312255859375t1.153564453125-0.836181640625t1.739501953125-0.299072265625q0.57373046875,0,1.171875,0.152587890625t1.025390625,0.567626953125q0-0.244140625,0.048828125-1.007080078125t0.1220703125-1.776123046875t0.152587890625-2.1240234375t0.140380859375-2.06298828125t0.10986328125-1.59912109375t0.0732421875-0.732421875q0.1220703125-0.35400390625,0.45166015625-0.421142578125t0.62255859375-0.067138671875q0.76904296875,0,0.946044921875,0.244140625t0.177001953125,0.9765625q0,2.67333984375-0.238037109375,5.322265625t-0.238037109375,5.322265625q0,1.72119140625,0.067138671875,3.460693359375t0.482177734375,3.424072265625l0.13427734375,0.1220703125l0.0732421875,0.2197265625l-0.18310546875,0.28076171875q-0.4638671875,0.29296875-1.07421875,0.29296875l-0.048828125,0q-0.62255859375,0-1.1474609375-0.29296875q-0.1953125-0.1220703125-0.323486328125-0.726318359375t-0.201416015625-1.33056640625t-0.10986328125-1.397705078125t-0.06103515625-0.9521484375q-0.42724609375,0.9765625-1.165771484375,1.678466796875t-1.861572265625,0.701904296875q-0.87890625,0-1.4404296875-0.37841796875t-0.872802734375-0.96435546875t-0.439453125-1.312255859375t-0.128173828125-1.446533203125z M162.73815917969,32.87353515625q0,0.28076171875,0.067138671875,0.830078125t0.213623046875,1.0986328125t0.408935546875,0.9765625t0.689697265625,0.42724609375q0.57373046875-0.28076171875,1.03759765625-0.933837890625t0.799560546875-1.4404296875t0.52490234375-1.57470703125t0.189208984375-1.361083984375q0-0.72021484375-0.52490234375-1.1962890625t-1.25732421875-0.47607421875q-0.2197265625,0-0.445556640625,0.08544921875t-0.421142578125,0.1953125q-0.45166015625,0.42724609375-0.701904296875,0.775146484375t-0.37841796875,0.72021484375t-0.164794921875,0.823974609375t-0.03662109375,1.0498046875z"/><path fill="#ed646a" d="M177.81713867188,29.82177734375q0-2.099609375,0.115966796875-4.150390625t0.286865234375-4.150390625q0.048828125-0.54931640625,0.06103515625-1.06201171875t0.115966796875-0.897216796875t0.3662109375-0.6103515625t0.811767578125-0.225830078125q0.35400390625,0,0.738525390625,0.1220703125t0.384521484375,0.57373046875q0,1.69677734375-0.140380859375,3.338623046875t-0.189208984375,3.265380859375q1.33056640625-1.50146484375,2.84423828125-2.801513671875t3.21044921875-2.569580078125q0.244140625-0.1708984375,0.62255859375-0.18310546875q0.1220703125,0,0.213623046875,0.01220703125t0.189208984375,0.03662109375q0.1220703125,0.048828125,0.250244140625,0.115966796875t0.128173828125,0.189208984375q0,0.09765625-0.10986328125,0.1708984375q-1.26953125,1.025390625-2.508544921875,2.08740234375t-2.362060546875,2.2705078125q0.146484375,0.28076171875,0.250244140625,0.52490234375t0.225830078125,0.52490234375q1.025390625,2.42919921875,1.751708984375,4.974365234375t1.544189453125,5.047607421875q0.0732421875,0.28076171875,0.213623046875,0.579833984375t0.262451171875,0.59814453125t0.213623046875,0.5615234375t0.091552734375,0.433349609375q0,0.2197265625-0.140380859375,0.347900390625t-0.323486328125,0.201416015625t-0.396728515625,0.09765625t-0.396728515625,0.0244140625q-0.42724609375,0-0.762939453125-0.1220703125t-0.531005859375-0.54931640625q-0.9033203125-2.880859375-1.739501953125-5.76171875t-1.690673828125-5.810546875q-0.28076171875,0.28076171875-0.5615234375,0.701904296875t-0.5126953125,0.775146484375q0,1.8310546875,0.08544921875,3.6376953125t0.29296875,3.6376953125q0.048828125,0.52490234375,0.164794921875,1.0498046875t0.115966796875,1.07421875q0,0.40283203125-0.4150390625,0.5615234375t-0.91552734375,0.15869140625q-0.54931640625,0-0.823974609375-0.10986328125t-0.390625-0.286865234375t-0.140380859375-0.390625t-0.0732421875-0.408935546875q-0.28076171875-1.9287109375-0.35400390625-3.814697265625t-0.0732421875-3.790283203125z M190.32531738281,34.27734375l0-1.1474609375q0-0.62255859375,0.030517578125-1.763916015625t0.079345703125-2.50244140625t0.13427734375-2.838134765625t0.1953125-2.789306640625t0.262451171875-2.349853515625t0.347900390625-1.5380859375q0.1220703125-0.28076171875,0.40283203125-0.35400390625t0.54931640625-0.0732421875q0.42724609375,0,0.750732421875,0.189208984375t0.323486328125,0.689697265625l-0.2197265625,0.244140625q-0.42724609375,2.81982421875-0.54931640625,5.6640625t-0.1708984375,5.6884765625q0.30517578125-0.47607421875,0.689697265625-0.933837890625t0.8544921875-0.811767578125t1.01318359375-0.567626953125t1.190185546875-0.213623046875q0.830078125,0,1.373291015625,0.50048828125t0.897216796875,1.300048828125t0.52490234375,1.788330078125t0.262451171875,1.9775390625t0.128173828125,1.873779296875t0.10986328125,1.470947265625q-0.23193359375,0.3173828125-0.68359375,0.3173828125l-0.03662109375,0q-0.1953125,0-0.42724609375-0.048828125t-0.30517578125-0.244140625l0.0244140625,0.0244140625q-0.1708984375-0.37841796875-0.23193359375-1.092529296875t-0.09765625-1.57470703125t-0.128173828125-1.763916015625t-0.274658203125-1.6357421875t-0.537109375-1.20849609375t-0.9521484375-0.50048828125l-0.0732421875,0q-0.72021484375,0-1.20849609375,0.439453125q-0.5126953125,0.4638671875-0.830078125,1.220703125t-0.48828125,1.6845703125t-0.262451171875,1.788330078125t-0.140380859375,1.5625t-0.1220703125,1.031494140625q-0.0732421875,0.28076171875-0.433349609375,0.372314453125t-0.616455078125,0.091552734375q-0.59814453125,0-0.9765625-0.341796875q-0.28076171875-0.67138671875-0.32958984375-1.67236328125t-0.048828125-1.953125z M201.5029296875,31.87255859375q0-0.244140625,0.054931640625-0.64697265625t0.128173828125-0.799560546875t0.1708984375-0.738525390625t0.23193359375-0.439453125q0.09765625-0.09765625,0.335693359375-0.1953125t0.50048828125-0.140380859375t0.48828125,0.03662109375t0.274658203125,0.323486328125q-0.1708984375,0.2197265625-0.311279296875,0.750732421875t-0.213623046875,1.177978515625q-0.06103515625,0.54931640625-0.06103515625,1.13525390625l0,0.20751953125q0.01220703125,0.68359375,0.1220703125,1.25732421875t0.335693359375,0.946044921875t0.628662109375,0.372314453125q0.8544921875,0,1.5625-0.787353515625t1.25732421875-1.922607421875t0.96435546875-2.410888671875t0.7080078125-2.227783203125q0.0732421875-0.28076171875,0.347900390625-0.37841796875t0.592041015625-0.067138671875t0.567626953125,0.152587890625t0.299072265625,0.29296875q-0.244140625,2.05078125-0.384521484375,4.1015625t-0.140380859375,4.1259765625q0,0.40283203125,0.03662109375,0.738525390625t-0.03662109375,0.57373046875t-0.323486328125,0.37841796875t-0.799560546875,0.140380859375q-0.1220703125,0-0.311279296875-0.0244140625t-0.390625-0.079345703125t-0.341796875-0.164794921875t-0.140380859375-0.25634765625q0-0.9033203125,0.067138671875-1.85546875t0.189208984375-1.84326171875q-0.32958984375,0.47607421875-0.726318359375,0.946044921875t-0.872802734375,0.848388671875t-1.025390625,0.604248046875t-1.18408203125,0.225830078125q-0.9033203125,0-1.422119140625-0.42724609375t-0.78125-1.068115234375t-0.32958984375-1.397705078125t-0.067138671875-1.46484375z M212.98571777344,37.2802734375q0-0.35400390625,0.030517578125-0.74462890625t0.054931640625-0.732421875l0.0732421875-1.8310546875q0.1220703125-2.197265625,0.299072265625-4.3212890625t0.299072265625-4.296875q0.0732421875-1.1962890625,0.10986328125-2.349853515625t0.10986328125-2.349853515625q-0.048828125-0.09765625-0.048828125-0.13427734375q0-0.1708984375,0.128173828125-0.2685546875t0.299072265625-0.164794921875t0.360107421875-0.091552734375t0.286865234375-0.0244140625l0.28076171875,0q0.37841796875,0.048828125,0.54931640625,0.238037109375t0.2197265625,0.45166015625t0.0244140625,0.5615234375t-0.0244140625,0.555419921875q0,1.77001953125-0.08544921875,3.607177734375t-0.1953125,3.6865234375t-0.201416015625,3.69873046875t-0.091552734375,3.656005859375l0,0.8544921875q0,0.57373046875-0.323486328125,0.7568359375t-0.897216796875,0.18310546875q-0.50048828125,0-0.87890625-0.2197265625t-0.37841796875-0.72021484375z M218.58471679688,32.94677734375q0-0.830078125,0.225830078125-1.59912109375t0.677490234375-1.373291015625t1.129150390625-0.96435546875t1.568603515625-0.360107421875q0.54931640625,0,1.214599609375,0.164794921875t1.251220703125,0.48828125t0.9765625,0.823974609375t0.390625,1.1474609375q0,0.30517578125-0.103759765625,0.4638671875t-0.421142578125,0.15869140625l-0.13427734375-0.0244140625q0.35400390625,0.9521484375,0.6103515625,1.953125t0.50048828125,2.001953125q0.09765625,0.1953125,0.146484375,0.347900390625t0.048828125,0.299072265625q0,0.1953125-0.10986328125,0.323486328125t-0.286865234375,0.189208984375t-0.3662109375,0.08544921875t-0.335693359375,0.0244140625q-0.52490234375,0-0.787353515625-0.18310546875t-0.37841796875-0.50048828125t-0.140380859375-0.714111328125t-0.09765625-0.799560546875q-0.146484375,0.47607421875-0.384521484375,0.927734375t-0.5615234375,0.811767578125t-0.762939453125,0.57373046875t-0.98876953125,0.213623046875q-0.8056640625,0-1.35498046875-0.4638671875t-0.885009765625-1.141357421875t-0.48828125-1.446533203125t-0.152587890625-1.42822265625z M220.31811523438,32.77587890625q0,0.45166015625,0.06103515625,0.9521484375t0.201416015625,0.98876953125t0.360107421875,0.921630859375t0.54931640625,0.762939453125q0.59814453125-0.64697265625,0.885009765625-1.57470703125t0.5126953125-1.788330078125t0.5126953125-1.47705078125t0.885009765625-0.616455078125q0.37841796875,0,0.634765625,0.13427734375q-0.1220703125-0.30517578125-0.40283203125-0.592041015625t-0.628662109375-0.52490234375t-0.72021484375-0.390625t-0.701904296875-0.152587890625q-0.09765625,0-0.225830078125,0.030517578125t-0.201416015625,0.006103515625q-0.50048828125,0.146484375-0.823974609375,0.506591796875t-0.52490234375,0.848388671875t-0.286865234375,1.0009765625t-0.08544921875,0.96435546875z M229.16418457031,32.65380859375q0-1.123046875,0.262451171875-2.203369140625t0.445556640625-2.154541015625q0.048828125-0.28076171875,0.384521484375-0.347900390625t0.567626953125-0.067138671875q0.40283203125,0,0.64697265625,0.1220703125q0.09765625,0.048828125,0.18310546875,0.10986328125t0.08544921875,0.15869140625q0,1.0498046875-0.250244140625,2.05078125t-0.250244140625,2.1240234375q0,0.37841796875,0.054931640625,0.714111328125t0.103759765625,0.665283203125l0.0732421875,0.35400390625q0,0.09765625,0.01220703125,0.1708984375t0.03662109375,0.1708984375q0,0.2197265625-0.311279296875,0.299072265625t-0.543212890625,0.079345703125q-0.35400390625,0-0.653076171875-0.140380859375t-0.469970703125-0.482177734375l-0.1708984375-0.35400390625q-0.146484375-0.28076171875-0.146484375-0.628662109375t-0.06103515625-0.640869140625z M229.94543457031,25.30517578125l0-0.23193359375q0-0.57373046875,0.286865234375-1.025390625t0.860595703125-0.45166015625q0.0732421875,0,0.140380859375,0.01220703125t0.140380859375,0.01220703125q0.146484375,0.0244140625,0.384521484375,0.115966796875t0.238037109375,0.286865234375l0,0.0244140625q-0.048828125,0.09765625-0.06103515625,0.201416015625t-0.06103515625,0.177001953125l0.0244140625-0.0244140625q-0.146484375,0.37841796875-0.238037109375,0.6103515625t-0.201416015625,0.372314453125t-0.274658203125,0.201416015625t-0.469970703125,0.06103515625q-0.048828125,0-0.1708984375-0.01220703125t-0.262451171875-0.048828125t-0.238037109375-0.09765625t-0.09765625-0.18310546875z M234.49462890625,32.80029296875q0-0.9521484375,0.201416015625-1.727294921875t0.640869140625-1.312255859375t1.153564453125-0.836181640625t1.739501953125-0.299072265625q0.57373046875,0,1.171875,0.152587890625t1.025390625,0.567626953125q0-0.244140625,0.048828125-1.007080078125t0.1220703125-1.776123046875t0.152587890625-2.1240234375t0.140380859375-2.06298828125t0.10986328125-1.59912109375t0.0732421875-0.732421875q0.1220703125-0.35400390625,0.45166015625-0.421142578125t0.62255859375-0.067138671875q0.76904296875,0,0.946044921875,0.244140625t0.177001953125,0.9765625q0,2.67333984375-0.238037109375,5.322265625t-0.238037109375,5.322265625q0,1.72119140625,0.067138671875,3.460693359375t0.482177734375,3.424072265625l0.13427734375,0.1220703125l0.0732421875,0.2197265625l-0.18310546875,0.28076171875q-0.4638671875,0.29296875-1.07421875,0.29296875l-0.048828125,0q-0.62255859375,0-1.1474609375-0.29296875q-0.1953125-0.1220703125-0.323486328125-0.726318359375t-0.201416015625-1.33056640625t-0.10986328125-1.397705078125t-0.06103515625-0.9521484375q-0.42724609375,0.9765625-1.165771484375,1.678466796875t-1.861572265625,0.701904296875q-0.87890625,0-1.4404296875-0.37841796875t-0.872802734375-0.96435546875t-0.439453125-1.312255859375t-0.128173828125-1.446533203125z M235.9716796875,32.87353515625q0,0.28076171875,0.067138671875,0.830078125t0.213623046875,1.0986328125t0.408935546875,0.9765625t0.689697265625,0.42724609375q0.57373046875-0.28076171875,1.03759765625-0.933837890625t0.799560546875-1.4404296875t0.52490234375-1.57470703125t0.189208984375-1.361083984375q0-0.72021484375-0.52490234375-1.1962890625t-1.25732421875-0.47607421875q-0.2197265625,0-0.445556640625,0.08544921875t-0.421142578125,0.1953125q-0.45166015625,0.42724609375-0.701904296875,0.775146484375t-0.37841796875,0.72021484375t-0.164794921875,0.823974609375t-0.03662109375,1.0498046875z"/></svg>
